# xmcd
#
# Track frame offsets:
#	187
#	9422
#	33052
#	52312
#	76770
#	106965
#	132272
#	148475
#	169565
#	198977
#	221717
#	239470
#	258242
#	278922
#	303882
#
# Disc length: 4163 seconds
#
# Revision: 1
# Processed by: cddbd v1.5PL3 Copyright (c) Steve Scherf et al.
# Submitted via: CDex 1.50Beta5
#
DISCID=d010410f
DTITLE=Nicolette - Let No-One Live Rentfree Your Head
DYEAR=1900
DGENRE=Blues
TTITLE0=Don't Be Afraid
TTITLE1=We Never Know
TTITLE2=Song For Europe
TTITLE3=Beautiful Day
TTITLE4=Judgement Day
TTITLE5=Always
TTITLE6=Nervous
TTITLE7=Where Have All The Flowers Gone?
TTITLE8=No Goverment (As Way Of Life) - Plaid Remix
TTITLE9=Nightmare
TTITLE10=Judgement Day - Acoustic
TTITLE11=You Are Heaven Sent
TTITLE12=Just To Say Peace And Love
TTITLE13=No Goverment
TTITLE14=Don't Be Ashamed
EXTD=
EXTT0=
EXTT1=
EXTT2=
EXTT3=
EXTT4=
EXTT5=
EXTT6=
EXTT7=
EXTT8=
EXTT9=
EXTT10=
EXTT11=
EXTT12=
EXTT13=
EXTT14=
PLAYORDER=
